<?xml version="1.0" encoding="utf-8"?>
<!-- Generator: Adobe Illustrator 26.0.2, SVG Export Plug-In . SVG Version: 6.00 Build 0)  -->
<svg version="1.1" id="Layer_1" xmlns="http://www.w3.org/2000/svg" xmlns:xlink="http://www.w3.org/1999/xlink" x="0px" y="0px"
	 viewBox="0 0 800 800" style="enable-background:new 0 0 800 800;" xml:space="preserve">
<g id="NewGroupe0_00000134969653924530493810000005835032073715328421_">
	<g id="NewGroup6-0">
		<g>
			<path d="M401.2,371.25c15.44,0,28,12.56,28,28c0,15.44-12.56,28-28,28s-28-12.56-28-28C373.2,383.81,385.76,371.25,401.2,371.25
				L401.2,371.25z M401.2,441.1c23.08,0,41.85-18.77,41.85-41.85c0-23.08-18.77-41.85-41.85-41.85c-23.08,0-41.85,18.77-41.85,41.85
				C359.35,422.32,378.13,441.1,401.2,441.1L401.2,441.1z"/>
			<path d="M182.32,391.42c0-1.16,0.95-2.11,2.11-2.11h15.66c1.16,0,2.11,0.95,2.11,2.11v15.66c0,1.16-0.95,2.11-2.11,2.11h-15.66
				c-1.16,0-2.11-0.95-2.11-2.11V391.42L182.32,391.42z M342.49,348.67c0-4.48,3.65-8.13,8.13-8.13h101.16
				c4.48,0,8.13,3.65,8.13,8.13v101.16c0,4.48-3.65,8.13-8.13,8.13H350.62c-4.48,0-8.13-3.65-8.13-8.13V348.67L342.49,348.67z
				 M266.56,256.54v-15.66c0-1.16,0.95-2.11,2.11-2.11h15.66c1.16,0,2.11,0.95,2.11,2.11v15.66c0,1.16-0.95,2.11-2.11,2.11h-15.66
				C267.51,258.64,266.56,257.7,266.56,256.54L266.56,256.54z M267.16,196.32c0,1.16-0.95,2.11-2.11,2.11H249.4
				c-1.16,0-2.11-0.95-2.11-2.11v-15.66c0-1.16,0.95-2.11,2.11-2.11h15.66c1.16,0,2.11,0.95,2.11,2.11V196.32L267.16,196.32z
				 M532.17,180.66c0-1.16,0.95-2.11,2.11-2.11h15.66c1.16,0,2.11,0.95,2.11,2.11v15.66c0,1.16-0.95,2.11-2.11,2.11h-15.66
				c-1.16,0-2.11-0.95-2.11-2.11V180.66L532.17,180.66z M512.91,256.54v-15.66c0-1.16,0.95-2.11,2.11-2.11h15.66
				c1.16,0,2.11,0.95,2.11,2.11v15.66c0,1.16-0.95,2.11-2.11,2.11h-15.66C513.85,258.64,512.91,257.7,512.91,256.54L512.91,256.54z
				 M597.81,391.42c0-1.16,0.95-2.11,2.11-2.11h15.66c1.16,0,2.11,0.95,2.11,2.11v15.66c0,1.16-0.95,2.11-2.11,2.11h-15.66
				c-1.16,0-2.11-0.95-2.11-2.11V391.42L597.81,391.42z M532.78,543.46v15.66c0,1.16-0.95,2.11-2.11,2.11h-15.66
				c-1.16,0-2.11-0.95-2.11-2.11v-15.66c0-1.16,0.95-2.11,2.11-2.11h15.66C531.83,541.36,532.78,542.3,532.78,543.46L532.78,543.46z
				 M532.17,603.68c0-1.16,0.95-2.11,2.11-2.11h15.66c1.16,0,2.11,0.95,2.11,2.11v15.66c0,1.16-0.95,2.11-2.11,2.11h-15.66
				c-1.16,0-2.11-0.95-2.11-2.11V603.68L532.17,603.68z M267.16,619.34c0,1.16-0.95,2.11-2.11,2.11H249.4
				c-1.16,0-2.11-0.95-2.11-2.11v-15.66c0-1.16,0.95-2.11,2.11-2.11h15.66c1.16,0,2.11,0.95,2.11,2.11V619.34L267.16,619.34z
				 M286.43,543.46v15.66c0,1.16-0.95,2.11-2.11,2.11h-15.66c-1.16,0-2.11-0.95-2.11-2.11v-15.66c0-1.16,0.95-2.11,2.11-2.11h15.66
				C285.49,541.36,286.43,542.3,286.43,543.46L286.43,543.46z M184.43,423.03h15.66c8.8,0,15.96-7.16,15.96-15.96v-0.9h112.6v22.28
				h-43.11c-8.8,0-15.96,7.16-15.96,15.96v83.1h-0.9c-8.8,0-15.96,7.16-15.96,15.96v15.66c0,8.8,7.16,15.96,15.96,15.96h15.66
				c8.8,0,15.96-7.16,15.96-15.96v-15.66c0-8.8-7.16-15.96-15.96-15.96h-0.9v-83.1c0-1.16,0.95-2.11,2.11-2.11h43.11v7.53
				c0,12.12,9.86,21.98,21.98,21.98h11.14v130.67c0,1.16-0.95,2.11-2.11,2.11h-78.64v-0.9c0-8.8-7.16-15.96-15.96-15.96H249.4
				c-8.8,0-15.96,7.16-15.96,15.96v15.66c0,8.8,7.16,15.96,15.96,15.96h15.66c8.8,0,15.96-7.16,15.96-15.96v-0.9h78.64
				c8.8,0,15.96-7.16,15.96-15.96V471.81h48.11v130.67c0,8.8,7.16,15.96,15.96,15.96h78.64v0.9c0,8.8,7.16,15.96,15.96,15.96h15.66
				c8.8,0,15.96-7.16,15.96-15.96v-15.66c0-8.8-7.16-15.96-15.96-15.96h-15.66c-8.8,0-15.96,7.16-15.96,15.96v0.9h-78.64
				c-1.16,0-2.11-0.95-2.11-2.11V471.81h14.21c12.12,0,21.98-9.86,21.98-21.98v-7.53h40.04c1.16,0,2.11,0.95,2.11,2.11v83.1h-0.9
				c-8.8,0-15.96,7.16-15.96,15.96v15.66c0,8.8,7.16,15.96,15.96,15.96h15.66c8.8,0,15.96-7.16,15.96-15.96v-15.66
				c0-8.8-7.16-15.96-15.96-15.96h-0.9v-83.1c0-8.8-7.16-15.96-15.96-15.96h-40.04v-22.28h110.2v0.9c0,8.8,7.16,15.96,15.96,15.96
				h15.66c8.8,0,15.96-7.16,15.96-15.96v-15.66c0-8.8-7.16-15.96-15.96-15.96h-15.66c-8.8,0-15.96,7.16-15.96,15.96v0.9h-110.2
				v-20.77h40.04c8.8,0,15.96-7.16,15.96-15.96v-83.1h0.9c8.8,0,15.96-7.16,15.96-15.96v-15.66c0-8.8-7.16-15.96-15.96-15.96h-15.66
				c-8.8,0-15.96,7.16-15.96,15.96v15.66c0,8.8,7.16,15.96,15.96,15.96h0.9v83.1c0,1.16-0.95,2.11-2.11,2.11h-40.04v-9.03
				c0-12.12-9.86-21.98-21.98-21.98h-14.21V197.52c0-1.16,0.95-2.11,2.11-2.11h78.64v0.9c0,8.8,7.16,15.96,15.96,15.96h15.66
				c8.8,0,15.96-7.16,15.96-15.96v-15.66c0-8.8-7.16-15.96-15.96-15.96h-15.66c-8.8,0-15.96,7.16-15.96,15.96v0.9h-78.64
				c-8.8,0-15.96,7.16-15.96,15.96v129.16h-48.11V197.52c0-8.8-7.16-15.96-15.96-15.96h-78.64v-0.9c0-8.8-7.16-15.96-15.96-15.96
				H249.4c-8.8,0-15.96,7.16-15.96,15.96v15.66c0,8.8,7.16,15.96,15.96,15.96h15.66c8.8,0,15.96-7.16,15.96-15.96v-0.9h78.64
				c1.16,0,2.11,0.95,2.11,2.11v129.16h-11.14c-12.12,0-21.98,9.86-21.98,21.98v9.03h-43.11c-1.16,0-2.11-0.95-2.11-2.11v-83.1h0.9
				c8.8,0,15.96-7.16,15.96-15.96v-15.66c0-8.8-7.16-15.96-15.96-15.96h-15.66c-8.8,0-15.96,7.16-15.96,15.96v15.66
				c0,8.8,7.16,15.96,15.96,15.96h0.9v83.1c0,8.8,7.16,15.96,15.96,15.96h43.11v20.77h-112.6v-0.9c0-8.8-7.16-15.96-15.96-15.96
				h-15.66c-8.8,0-15.96,7.16-15.96,15.96v15.66C168.47,415.87,175.63,423.03,184.43,423.03L184.43,423.03z"/>
		</g>
	</g>
</g>
</svg>
